<?xml version="1.0" encoding="UTF-8" standalone="no"?>
<!-- Created with Inkscape (http://www.inkscape.org/) -->

<svg
   version="1.1"
   id="svg2"
   width="333.73334"
   height="302.35999"
   viewBox="0 0 333.73334 302.35999"
   sodipodi:docname="fb4-wi-logo.eps"
   xmlns:inkscape="http://www.inkscape.org/namespaces/inkscape"
   xmlns:sodipodi="http://sodipodi.sourceforge.net/DTD/sodipodi-0.dtd"
   xmlns="http://www.w3.org/2000/svg"
   xmlns:svg="http://www.w3.org/2000/svg">
  <defs
     id="defs6" />
  <sodipodi:namedview
     id="namedview4"
     pagecolor="#ffffff"
     bordercolor="#000000"
     borderopacity="0.25"
     inkscape:showpageshadow="2"
     inkscape:pageopacity="0.0"
     inkscape:pagecheckerboard="0"
     inkscape:deskcolor="#d1d1d1" />
  <g
     id="g8"
     inkscape:groupmode="layer"
     inkscape:label="ink_ext_XXXXXX"
     transform="matrix(1.3333333,0,0,-1.3333333,0,302.36)">
    <g
       id="g10"
       transform="scale(0.1)">
      <path
         d="m 1475.43,805.52 c -356.66,0 -558.239,210.6 -603.657,448.73 h -66.652 v 212.6 h 67.125 c 46.836,240.1 252.264,453.54 617.364,453.54 V 1707.8 c -220.44,0 -353.29,-109.34 -399.23,-240.95 h 281.67 v -212.6 h -282.43 c 44.36,-129.45 173.18,-236.13 385.81,-236.13 v -212.6 0"
         style="fill:#73c82c;fill-opacity:1;fill-rule:nonzero;stroke:none"
         id="path12" />
      <path
         d="m 348.672,2040.94 c -62.621,0 -113.383,-50.76 -113.383,-113.38 V 793.711 c 0,-62.629 50.762,-113.402 113.383,-113.402 H 2162.84 c 62.63,0 113.39,50.773 113.39,113.402 V 1927.56 c 0,62.62 -50.76,113.38 -113.39,113.38 H 348.672 Z m 0,226.77 H 2162.84 c 187.87,0 340.17,-152.28 340.17,-340.15 V 793.711 c 0,-187.883 -152.3,-340.172 -340.17,-340.172 H 348.672 C 160.813,453.539 8.51563,605.828 8.51563,793.711 V 1927.56 c 0,187.87 152.29737,340.15 340.15637,340.15 v 0"
         style="fill:#73c82c;fill-opacity:1;fill-rule:nonzero;stroke:none"
         id="path14" />
      <path
         d="M 0,226.77 H 2494.48 V 0 H 0 v 226.77 0"
         style="fill:#73c82c;fill-opacity:1;fill-rule:nonzero;stroke:none"
         id="path16" />
    </g>
  </g>
</svg>
